<?xml version="1.0" encoding="UTF-8" standalone="no"?>
<!DOCTYPE svg PUBLIC "-//W3C//DTD SVG 1.1//EN"
 "http://www.w3.org/Graphics/SVG/1.1/DTD/svg11.dtd">
<!-- Generated by graphviz version 2.40.1 (20161225.0304)
 -->
<!-- Title: dependencies Pages: 1 -->
<svg width="2586pt" height="284pt"
 viewBox="0.00 0.00 2586.00 284.00" xmlns="http://www.w3.org/2000/svg" xmlns:xlink="http://www.w3.org/1999/xlink">
<g id="graph0" class="graph" transform="scale(1 1) rotate(0) translate(4 280)">
<title>dependencies</title>
<polygon fill="#ffffff" stroke="transparent" points="-4,4 -4,-280 2582,-280 2582,4 -4,4"/>
<text text-anchor="start" x="1268.0091" y="-42.4" font-family="sans-serif" font-weight="bold" font-size="14.00" fill="#000000">Legend</text>
<polygon fill="#ffffb3" stroke="transparent" points="1055,-10 1055,-30 1075,-30 1075,-10 1055,-10"/>
<text text-anchor="start" x="1078.629" y="-15.4" font-family="sans-serif" font-size="14.00" fill="#000000"> &#160;Declarations</text>
<polygon fill="#8dd3c7" stroke="transparent" points="1168,-10 1168,-30 1188,-30 1188,-10 1168,-10"/>
<text text-anchor="start" x="1191.7251" y="-15.4" font-family="sans-serif" font-size="14.00" fill="#000000"> &#160;Module</text>
<polygon fill="#80b1d3" stroke="transparent" points="1254,-10 1254,-30 1274,-30 1274,-10 1254,-10"/>
<text text-anchor="start" x="1277.7812" y="-15.4" font-family="sans-serif" font-size="14.00" fill="#000000"> &#160;Bootstrap</text>
<polygon fill="#fdb462" stroke="transparent" points="1351,-10 1351,-30 1371,-30 1371,-10 1351,-10"/>
<text text-anchor="start" x="1374.6732" y="-15.4" font-family="sans-serif" font-size="14.00" fill="#000000"> &#160;Providers</text>
<polygon fill="#fb8072" stroke="transparent" points="1447,-10 1447,-30 1467,-30 1467,-10 1447,-10"/>
<text text-anchor="start" x="1470.7258" y="-15.4" font-family="sans-serif" font-size="14.00" fill="#000000"> &#160;Exports</text>
<g id="clust1" class="cluster">
<title>cluster_AppModule</title>
<polygon fill="none" stroke="#000000" stroke-dasharray="1,5" points="8,-70 8,-268 2570,-268 2570,-70 8,-70"/>
</g>
<g id="clust2" class="cluster">
<title>cluster_AppModule_declarations</title>
<polygon fill="none" stroke="#000000" points="356,-78 356,-130 2562,-130 2562,-78 356,-78"/>
</g>
<g id="clust18" class="cluster">
<title>cluster_AppModule_imports</title>
<polygon fill="none" stroke="#000000" points="246,-78 246,-130 348,-130 348,-78 246,-78"/>
</g>
<g id="clust20" class="cluster">
<title>cluster_AppModule_bootstrap</title>
<polygon fill="none" stroke="#000000" points="1263,-208 1263,-260 1387,-260 1387,-208 1263,-208"/>
</g>
<g id="clust21" class="cluster">
<title>cluster_AppModule_providers</title>
<polygon fill="none" stroke="#000000" points="16,-78 16,-130 238,-130 238,-78 16,-78"/>
</g>
<!-- AboutComponent -->
<g id="node1" class="node">
<title>AboutComponent</title>
<polygon fill="#ffffb3" stroke="#000000" points="2554.3301,-122 2437.6699,-122 2437.6699,-86 2554.3301,-86 2554.3301,-122"/>
<text text-anchor="middle" x="2496" y="-99.8" font-family="Times,serif" font-size="14.00" fill="#000000">AboutComponent</text>
</g>
<!-- AppModule -->
<g id="node16" class="node">
<title>AppModule</title>
<polygon fill="#8dd3c7" stroke="#000000" points="1366.6571,-187 1363.6571,-191 1342.6571,-191 1339.6571,-187 1283.3429,-187 1283.3429,-151 1366.6571,-151 1366.6571,-187"/>
<text text-anchor="middle" x="1325" y="-164.8" font-family="Times,serif" font-size="14.00" fill="#000000">AppModule</text>
</g>
<!-- AboutComponent&#45;&gt;AppModule -->
<g id="edge1" class="edge">
<title>AboutComponent&#45;&gt;AppModule</title>
<path fill="none" stroke="#000000" d="M2496,-122.3228C2496,-145.6602 2496,-183 2496,-183 2496,-183 1376.6765,-183 1376.6765,-183"/>
<polygon fill="#000000" stroke="#000000" points="1376.6765,-179.5001 1366.6765,-183 1376.6765,-186.5001 1376.6765,-179.5001"/>
</g>
<!-- AnnouncementsComponent -->
<g id="node2" class="node">
<title>AnnouncementsComponent</title>
<polygon fill="#ffffb3" stroke="#000000" points="2420.3089,-122 2247.6911,-122 2247.6911,-86 2420.3089,-86 2420.3089,-122"/>
<text text-anchor="middle" x="2334" y="-99.8" font-family="Times,serif" font-size="14.00" fill="#000000">AnnouncementsComponent</text>
</g>
<!-- AnnouncementsComponent&#45;&gt;AppModule -->
<g id="edge2" class="edge">
<title>AnnouncementsComponent&#45;&gt;AppModule</title>
<path fill="none" stroke="#000000" d="M2334,-122.1554C2334,-144.3519 2334,-179 2334,-179 2334,-179 1376.7524,-179 1376.7524,-179"/>
<polygon fill="#000000" stroke="#000000" points="1376.7525,-175.5001 1366.7524,-179 1376.7524,-182.5001 1376.7525,-175.5001"/>
</g>
<!-- AppComponent -->
<g id="node3" class="node">
<title>AppComponent</title>
<polygon fill="#ffffb3" stroke="#000000" points="2229.9399,-122 2124.0601,-122 2124.0601,-86 2229.9399,-86 2229.9399,-122"/>
<text text-anchor="middle" x="2177" y="-99.8" font-family="Times,serif" font-size="14.00" fill="#000000">AppComponent</text>
</g>
<!-- AppComponent&#45;&gt;AppModule -->
<g id="edge3" class="edge">
<title>AppComponent&#45;&gt;AppModule</title>
<path fill="none" stroke="#000000" d="M2177,-122.2843C2177,-143.3211 2177,-175 2177,-175 2177,-175 1376.6705,-175 1376.6705,-175"/>
<polygon fill="#000000" stroke="#000000" points="1376.6705,-171.5001 1366.6705,-175 1376.6705,-178.5001 1376.6705,-171.5001"/>
</g>
<!-- DeliverablesComponent -->
<g id="node4" class="node">
<title>DeliverablesComponent</title>
<polygon fill="#ffffb3" stroke="#000000" points="2106.0744,-122 1953.9256,-122 1953.9256,-86 2106.0744,-86 2106.0744,-122"/>
<text text-anchor="middle" x="2030" y="-99.8" font-family="Times,serif" font-size="14.00" fill="#000000">DeliverablesComponent</text>
</g>
<!-- DeliverablesComponent&#45;&gt;AppModule -->
<g id="edge4" class="edge">
<title>DeliverablesComponent&#45;&gt;AppModule</title>
<path fill="none" stroke="#000000" d="M2030,-122.308C2030,-142.1455 2030,-171 2030,-171 2030,-171 1376.729,-171 1376.729,-171"/>
<polygon fill="#000000" stroke="#000000" points="1376.729,-167.5001 1366.729,-171 1376.7289,-174.5001 1376.729,-167.5001"/>
</g>
<!-- FooterComponent -->
<g id="node5" class="node">
<title>FooterComponent</title>
<polygon fill="#ffffb3" stroke="#000000" points="1935.8809,-122 1818.1191,-122 1818.1191,-86 1935.8809,-86 1935.8809,-122"/>
<text text-anchor="middle" x="1877" y="-99.8" font-family="Times,serif" font-size="14.00" fill="#000000">FooterComponent</text>
</g>
<!-- FooterComponent&#45;&gt;AppModule -->
<g id="edge5" class="edge">
<title>FooterComponent&#45;&gt;AppModule</title>
<path fill="none" stroke="#000000" d="M1877,-122.2222C1877,-140.8285 1877,-167 1877,-167 1877,-167 1376.9428,-167 1376.9428,-167"/>
<polygon fill="#000000" stroke="#000000" points="1376.9428,-163.5001 1366.9428,-167 1376.9428,-170.5001 1376.9428,-163.5001"/>
</g>
<!-- HomeComponent -->
<g id="node6" class="node">
<title>HomeComponent</title>
<polygon fill="#ffffb3" stroke="#000000" points="1799.5451,-122 1684.4549,-122 1684.4549,-86 1799.5451,-86 1799.5451,-122"/>
<text text-anchor="middle" x="1742" y="-99.8" font-family="Times,serif" font-size="14.00" fill="#000000">HomeComponent</text>
</g>
<!-- HomeComponent&#45;&gt;AppModule -->
<g id="edge6" class="edge">
<title>HomeComponent&#45;&gt;AppModule</title>
<path fill="none" stroke="#000000" d="M1742,-122.0225C1742,-139.3734 1742,-163 1742,-163 1742,-163 1376.8928,-163 1376.8928,-163"/>
<polygon fill="#000000" stroke="#000000" points="1376.8929,-159.5001 1366.8928,-163 1376.8928,-166.5001 1376.8929,-159.5001"/>
</g>
<!-- JudgesComponent -->
<g id="node7" class="node">
<title>JudgesComponent</title>
<polygon fill="#ffffb3" stroke="#000000" points="1666.937,-122 1547.063,-122 1547.063,-86 1666.937,-86 1666.937,-122"/>
<text text-anchor="middle" x="1607" y="-99.8" font-family="Times,serif" font-size="14.00" fill="#000000">JudgesComponent</text>
</g>
<!-- JudgesComponent&#45;&gt;AppModule -->
<g id="edge7" class="edge">
<title>JudgesComponent&#45;&gt;AppModule</title>
<path fill="none" stroke="#000000" d="M1607,-122.0091C1607,-138.0494 1607,-159 1607,-159 1607,-159 1376.9137,-159 1376.9137,-159"/>
<polygon fill="#000000" stroke="#000000" points="1376.9138,-155.5001 1366.9137,-159 1376.9137,-162.5001 1376.9138,-155.5001"/>
</g>
<!-- LoginComponent -->
<g id="node8" class="node">
<title>LoginComponent</title>
<polygon fill="#ffffb3" stroke="#000000" points="1529.2758,-122 1414.7242,-122 1414.7242,-86 1529.2758,-86 1529.2758,-122"/>
<text text-anchor="middle" x="1472" y="-99.8" font-family="Times,serif" font-size="14.00" fill="#000000">LoginComponent</text>
</g>
<!-- LoginComponent&#45;&gt;AppModule -->
<g id="edge8" class="edge">
<title>LoginComponent&#45;&gt;AppModule</title>
<path fill="none" stroke="#000000" d="M1472,-122.1243C1472,-136.7832 1472,-155 1472,-155 1472,-155 1376.7311,-155 1376.7311,-155"/>
<polygon fill="#000000" stroke="#000000" points="1376.7311,-151.5001 1366.7311,-155 1376.7311,-158.5001 1376.7311,-151.5001"/>
</g>
<!-- NavigationComponent -->
<g id="node9" class="node">
<title>NavigationComponent</title>
<polygon fill="#ffffb3" stroke="#000000" points="1396.5407,-122 1253.4593,-122 1253.4593,-86 1396.5407,-86 1396.5407,-122"/>
<text text-anchor="middle" x="1325" y="-99.8" font-family="Times,serif" font-size="14.00" fill="#000000">NavigationComponent</text>
</g>
<!-- NavigationComponent&#45;&gt;AppModule -->
<g id="edge9" class="edge">
<title>NavigationComponent&#45;&gt;AppModule</title>
<path fill="none" stroke="#000000" d="M1325,-122.1061C1325,-122.1061 1325,-140.991 1325,-140.991"/>
<polygon fill="#000000" stroke="#000000" points="1321.5001,-140.9909 1325,-150.991 1328.5001,-140.991 1321.5001,-140.9909"/>
</g>
<!-- ParticipantsComponent -->
<g id="node10" class="node">
<title>ParticipantsComponent</title>
<polygon fill="#ffffb3" stroke="#000000" points="1235.927,-122 1088.073,-122 1088.073,-86 1235.927,-86 1235.927,-122"/>
<text text-anchor="middle" x="1162" y="-99.8" font-family="Times,serif" font-size="14.00" fill="#000000">ParticipantsComponent</text>
</g>
<!-- ParticipantsComponent&#45;&gt;AppModule -->
<g id="edge10" class="edge">
<title>ParticipantsComponent&#45;&gt;AppModule</title>
<path fill="none" stroke="#000000" d="M1162,-122.1243C1162,-136.7832 1162,-155 1162,-155 1162,-155 1273.0234,-155 1273.0234,-155"/>
<polygon fill="#000000" stroke="#000000" points="1273.0235,-158.5001 1283.0234,-155 1273.0234,-151.5001 1273.0235,-158.5001"/>
</g>
<!-- PastEventComponent -->
<g id="node11" class="node">
<title>PastEventComponent</title>
<polygon fill="#ffffb3" stroke="#000000" points="1070.823,-122 933.177,-122 933.177,-86 1070.823,-86 1070.823,-122"/>
<text text-anchor="middle" x="1002" y="-99.8" font-family="Times,serif" font-size="14.00" fill="#000000">PastEventComponent</text>
</g>
<!-- PastEventComponent&#45;&gt;AppModule -->
<g id="edge11" class="edge">
<title>PastEventComponent&#45;&gt;AppModule</title>
<path fill="none" stroke="#000000" d="M1002,-122.0091C1002,-138.0494 1002,-159 1002,-159 1002,-159 1273.1045,-159 1273.1045,-159"/>
<polygon fill="#000000" stroke="#000000" points="1273.1046,-162.5001 1283.1045,-159 1273.1045,-155.5001 1273.1046,-162.5001"/>
</g>
<!-- PrizesComponent -->
<g id="node12" class="node">
<title>PrizesComponent</title>
<polygon fill="#ffffb3" stroke="#000000" points="915.5409,-122 800.4591,-122 800.4591,-86 915.5409,-86 915.5409,-122"/>
<text text-anchor="middle" x="858" y="-99.8" font-family="Times,serif" font-size="14.00" fill="#000000">PrizesComponent</text>
</g>
<!-- PrizesComponent&#45;&gt;AppModule -->
<g id="edge12" class="edge">
<title>PrizesComponent&#45;&gt;AppModule</title>
<path fill="none" stroke="#000000" d="M858,-122.0225C858,-139.3734 858,-163 858,-163 858,-163 1273.1459,-163 1273.1459,-163"/>
<polygon fill="#000000" stroke="#000000" points="1273.1459,-166.5001 1283.1459,-163 1273.1458,-159.5001 1273.1459,-166.5001"/>
</g>
<!-- ProjectsComponent -->
<g id="node13" class="node">
<title>ProjectsComponent</title>
<polygon fill="#ffffb3" stroke="#000000" points="782.4313,-122 655.5687,-122 655.5687,-86 782.4313,-86 782.4313,-122"/>
<text text-anchor="middle" x="719" y="-99.8" font-family="Times,serif" font-size="14.00" fill="#000000">ProjectsComponent</text>
</g>
<!-- ProjectsComponent&#45;&gt;AppModule -->
<g id="edge13" class="edge">
<title>ProjectsComponent&#45;&gt;AppModule</title>
<path fill="none" stroke="#000000" d="M719,-122.2222C719,-140.8285 719,-167 719,-167 719,-167 1272.8684,-167 1272.8684,-167"/>
<polygon fill="#000000" stroke="#000000" points="1272.8684,-170.5001 1282.8684,-167 1272.8684,-163.5001 1272.8684,-170.5001"/>
</g>
<!-- SignUpComponent -->
<g id="node14" class="node">
<title>SignUpComponent</title>
<polygon fill="#ffffb3" stroke="#000000" points="638.1123,-122 513.8877,-122 513.8877,-86 638.1123,-86 638.1123,-122"/>
<text text-anchor="middle" x="576" y="-99.8" font-family="Times,serif" font-size="14.00" fill="#000000">SignUpComponent</text>
</g>
<!-- SignUpComponent&#45;&gt;AppModule -->
<g id="edge14" class="edge">
<title>SignUpComponent&#45;&gt;AppModule</title>
<path fill="none" stroke="#000000" d="M576,-122.308C576,-142.1455 576,-171 576,-171 576,-171 1273.1256,-171 1273.1256,-171"/>
<polygon fill="#000000" stroke="#000000" points="1273.1256,-174.5001 1283.1256,-171 1273.1255,-167.5001 1273.1256,-174.5001"/>
</g>
<!-- SponsorsComponent -->
<g id="node15" class="node">
<title>SponsorsComponent</title>
<polygon fill="#ffffb3" stroke="#000000" points="496.1652,-122 363.8348,-122 363.8348,-86 496.1652,-86 496.1652,-122"/>
<text text-anchor="middle" x="430" y="-99.8" font-family="Times,serif" font-size="14.00" fill="#000000">SponsorsComponent</text>
</g>
<!-- SponsorsComponent&#45;&gt;AppModule -->
<g id="edge15" class="edge">
<title>SponsorsComponent&#45;&gt;AppModule</title>
<path fill="none" stroke="#000000" d="M430,-122.2843C430,-143.3211 430,-175 430,-175 430,-175 1273.3305,-175 1273.3305,-175"/>
<polygon fill="#000000" stroke="#000000" points="1273.3305,-178.5001 1283.3305,-175 1273.3304,-171.5001 1273.3305,-178.5001"/>
</g>
<!-- AppComponent  -->
<g id="node18" class="node">
<title>AppComponent </title>
<polygon fill="#80b1d3" stroke="#000000" points="1379.439,-252 1270.561,-252 1270.561,-216 1379.439,-216 1379.439,-252"/>
<text text-anchor="middle" x="1325" y="-229.8" font-family="Times,serif" font-size="14.00" fill="#000000">AppComponent </text>
</g>
<!-- AppModule&#45;&gt;AppComponent  -->
<g id="edge17" class="edge">
<title>AppModule&#45;&gt;AppComponent </title>
<path fill="none" stroke="#000000" stroke-dasharray="1,5" d="M1325,-187.1061C1325,-187.1061 1325,-205.991 1325,-205.991"/>
<polygon fill="#000000" stroke="#000000" points="1321.5001,-205.9909 1325,-215.991 1328.5001,-205.991 1321.5001,-205.9909"/>
</g>
<!-- CoreModule -->
<g id="node17" class="node">
<title>CoreModule</title>
<polygon fill="#8dd3c7" stroke="#000000" points="340.2619,-122 337.2619,-126 316.2619,-126 313.2619,-122 253.7381,-122 253.7381,-86 340.2619,-86 340.2619,-122"/>
<text text-anchor="middle" x="297" y="-99.8" font-family="Times,serif" font-size="14.00" fill="#000000">CoreModule</text>
</g>
<!-- CoreModule&#45;&gt;AppModule -->
<g id="edge16" class="edge">
<title>CoreModule&#45;&gt;AppModule</title>
<path fill="none" stroke="#000000" d="M297,-122.1554C297,-144.3519 297,-179 297,-179 297,-179 1273.1069,-179 1273.1069,-179"/>
<polygon fill="#000000" stroke="#000000" points="1273.1069,-182.5001 1283.1069,-179 1273.1068,-175.5001 1273.1069,-182.5001"/>
</g>
<!-- AnnouncementsService -->
<g id="node19" class="node">
<title>AnnouncementsService</title>
<ellipse fill="#fdb462" stroke="#000000" cx="127" cy="-104" rx="102.9918" ry="18"/>
<text text-anchor="middle" x="127" y="-99.8" font-family="Times,serif" font-size="14.00" fill="#000000">AnnouncementsService</text>
</g>
<!-- AnnouncementsService&#45;&gt;AppModule -->
<g id="edge18" class="edge">
<title>AnnouncementsService&#45;&gt;AppModule</title>
<path fill="none" stroke="#000000" d="M127,-122.3228C127,-145.6602 127,-183 127,-183 127,-183 1273.065,-183 1273.065,-183"/>
<polygon fill="#000000" stroke="#000000" points="1273.065,-186.5001 1283.065,-183 1273.065,-179.5001 1273.065,-186.5001"/>
</g>
</g>
</svg>
